<svg xmlns="http://www.w3.org/2000/svg" xmlns:svg="http://www.w3.org/2000/svg" id="svg54861" width="793.701" height="793.701" version="1.1" viewBox="0 0 793.701 793.701" xml:space="preserve"><metadata id="metadata54867"/><defs id="defs54865"><clipPath id="clipPath54877" clipPathUnits="userSpaceOnUse"><path id="path54875" d="M 0,595.276 H 595.276 V 0 H 0 Z"/></clipPath></defs><g id="g54869" transform="matrix(1.3333333,0,0,-1.3333333,0,793.70133)"><g id="g54871"><g id="g54873" clip-path="url(#clipPath54877)"><path style="fill:#002b7f;fill-opacity:1;fill-rule:nonzero;stroke:none" id="path54879" d="M 2.5,476.24 H 593.275 V 121.775 H 2.5 Z"/><path style="fill:#ce1126;fill-opacity:1;fill-rule:nonzero;stroke:none" id="path54881" d="M 2.5,299.009 H 593.275 V 121.776 H 2.5 Z"/><path style="fill:#ffd83d;fill-opacity:1;fill-rule:nonzero;stroke:none" id="path54883" d="m 130.331,403.996 -1.086,-36.924 H 91.778 c -4.61,8.961 -8.417,16.572 -8.417,26.878 0,8.625 6.785,15.475 16.562,15.475 10.35,0 21.722,-3.487 30.408,-5.429"/><path style="fill:#ffd83d;fill-opacity:1;fill-rule:nonzero;stroke:none" id="path54885" d="M 87.841,402.299 V 380.986"/><path style="fill:none;stroke:#000;stroke-width:.88599998;stroke-linecap:round;stroke-linejoin:round;stroke-miterlimit:4;stroke-dasharray:none;stroke-opacity:1" id="path54887" d="M 87.841,402.299 V 380.986"/><path style="fill:#ffd83d;fill-opacity:1;fill-rule:nonzero;stroke:none" id="path54889" d="M 90.85,404.474 V 376.097"/><path style="fill:none;stroke:#000;stroke-width:.88599998;stroke-linecap:round;stroke-linejoin:round;stroke-miterlimit:4;stroke-dasharray:none;stroke-opacity:1" id="path54891" d="M 90.85,404.474 V 376.097"/><path style="fill:#ffd83d;fill-opacity:1;fill-rule:nonzero;stroke:none" id="path54893" d="M 93.859,405.967 V 372.16"/><path style="fill:none;stroke:#000;stroke-width:.88599998;stroke-linecap:round;stroke-linejoin:round;stroke-miterlimit:4;stroke-dasharray:none;stroke-opacity:1" id="path54895" d="M 93.859,405.967 V 372.16"/><path style="fill:#ffd83d;fill-opacity:1;fill-rule:nonzero;stroke:none" id="path54897" d="M 96.869,406.665 V 380.149"/><path style="fill:none;stroke:#000;stroke-width:.88599998;stroke-linecap:round;stroke-linejoin:round;stroke-miterlimit:4;stroke-dasharray:none;stroke-opacity:1" id="path54899" d="M 96.869,406.665 V 380.149"/><path style="fill:#ffd83d;fill-opacity:1;fill-rule:nonzero;stroke:none" id="path54901" d="M 99.878,406.796 V 380.019"/><path style="fill:none;stroke:#000;stroke-width:.88599998;stroke-linecap:round;stroke-linejoin:round;stroke-miterlimit:4;stroke-dasharray:none;stroke-opacity:1" id="path54903" d="M 99.878,406.796 V 380.019"/><path style="fill:#ffd83d;fill-opacity:1;fill-rule:nonzero;stroke:none" id="path54905" d="M 102.887,407.731 V 380.033"/><path style="fill:none;stroke:#000;stroke-width:.88599998;stroke-linecap:round;stroke-linejoin:round;stroke-miterlimit:4;stroke-dasharray:none;stroke-opacity:1" id="path54907" d="M 102.887,407.731 V 380.033"/><path style="fill:#ffd83d;fill-opacity:1;fill-rule:nonzero;stroke:none" id="path54909" d="M 105.896,407.731 V 380.033"/><path style="fill:none;stroke:#000;stroke-width:.88599998;stroke-linecap:round;stroke-linejoin:round;stroke-miterlimit:4;stroke-dasharray:none;stroke-opacity:1" id="path54911" d="M 105.896,407.731 V 380.033"/><path style="fill:#ffd83d;fill-opacity:1;fill-rule:nonzero;stroke:none" id="path54913" d="M 108.905,407.46 V 379.762"/><path style="fill:none;stroke:#000;stroke-width:.88599998;stroke-linecap:round;stroke-linejoin:round;stroke-miterlimit:4;stroke-dasharray:none;stroke-opacity:1" id="path54915" d="M 108.905,407.46 V 379.762"/><path style="fill:#ffd83d;fill-opacity:1;fill-rule:nonzero;stroke:none" id="path54917" d="M 111.914,407.188 V 379.49"/><path style="fill:none;stroke:#000;stroke-width:.88599998;stroke-linecap:round;stroke-linejoin:round;stroke-miterlimit:4;stroke-dasharray:none;stroke-opacity:1" id="path54919" d="M 111.914,407.188 V 379.49"/><path style="fill:#ffd83d;fill-opacity:1;fill-rule:nonzero;stroke:none" id="path54921" d="M 114.923,405.424 V 377.726"/><path style="fill:none;stroke:#000;stroke-width:.88599998;stroke-linecap:round;stroke-linejoin:round;stroke-miterlimit:4;stroke-dasharray:none;stroke-opacity:1" id="path54923" d="M 114.923,405.424 V 377.726"/><path style="fill:#ffd83d;fill-opacity:1;fill-rule:nonzero;stroke:none" id="path54925" d="M 117.932,405.152 V 373.924"/><path style="fill:none;stroke:#000;stroke-width:.88599998;stroke-linecap:round;stroke-linejoin:round;stroke-miterlimit:4;stroke-dasharray:none;stroke-opacity:1" id="path54927" d="M 117.932,405.152 V 373.924"/><path style="fill:#ffd83d;fill-opacity:1;fill-rule:nonzero;stroke:none" id="path54929" d="M 120.941,405.152 V 377.454"/><path style="fill:none;stroke:#000;stroke-width:.88599998;stroke-linecap:round;stroke-linejoin:round;stroke-miterlimit:4;stroke-dasharray:none;stroke-opacity:1" id="path54931" d="M 120.941,405.152 V 377.454"/><path style="fill:#ffd83d;fill-opacity:1;fill-rule:nonzero;stroke:none" id="path54933" d="M 123.95,405.152 V 377.454"/><path style="fill:none;stroke:#000;stroke-width:.88599998;stroke-linecap:round;stroke-linejoin:round;stroke-miterlimit:4;stroke-dasharray:none;stroke-opacity:1" id="path54935" d="M 123.95,405.152 V 377.454"/><path style="fill:#000;fill-opacity:1;fill-rule:nonzero;stroke:none" id="path54937" d="m 106.71,406.575 c 6.359,-1.049 20.327,-7.584 18.733,-16.426 -2.257,-12.53 -9.575,-7.502 -19.276,-5.702 l -7.33,-2.442 c -2.623,-2.678 -6.485,-5.13 -9.096,-1.901 h -4.343 v -16.969 h 48.055 v 40.996 z"/><path style="fill:none;stroke:#000;stroke-width:.88599998;stroke-linecap:round;stroke-linejoin:round;stroke-miterlimit:4;stroke-dasharray:none;stroke-opacity:1" id="path54939" d="m 106.71,406.575 c 6.359,-1.049 20.327,-7.584 18.733,-16.426 -2.257,-12.53 -9.575,-7.502 -19.276,-5.702 l -7.33,-2.442 c -2.623,-2.678 -6.485,-5.13 -9.096,-1.901 h -4.343 v -16.969 h 48.055 v 40.996 z"/><path style="fill:#ffd83d;fill-opacity:1;fill-rule:nonzero;stroke:none" id="path54941" d="m 128.226,412.412 c 1.612,0 2.919,-1.307 2.919,-2.919 0,-1.611 -1.307,-2.918 -2.919,-2.918 -1.612,0 -2.918,1.307 -2.918,2.918 0,1.612 1.306,2.919 2.918,2.919"/><path style="fill:none;stroke:#000;stroke-width:1.18200004;stroke-linecap:round;stroke-linejoin:round;stroke-miterlimit:4;stroke-dasharray:none;stroke-opacity:1" id="path54943" d="m 128.226,412.412 c 1.612,0 2.919,-1.307 2.919,-2.919 0,-1.611 -1.307,-2.918 -2.919,-2.918 -1.612,0 -2.918,1.307 -2.918,2.918 0,1.612 1.306,2.919 2.918,2.919 z"/><path style="fill:#ffd83d;fill-opacity:1;fill-rule:nonzero;stroke:none" id="path54945" d="m 121.667,413.991 c 1.612,0 2.919,-1.307 2.919,-2.919 0,-1.612 -1.307,-2.919 -2.919,-2.919 -1.612,0 -2.918,1.307 -2.918,2.919 0,1.612 1.306,2.919 2.918,2.919"/><path style="fill:none;stroke:#000;stroke-width:1.18200004;stroke-linecap:round;stroke-linejoin:round;stroke-miterlimit:4;stroke-dasharray:none;stroke-opacity:1" id="path54947" d="m 121.667,413.991 c 1.612,0 2.919,-1.307 2.919,-2.919 0,-1.612 -1.307,-2.919 -2.919,-2.919 -1.612,0 -2.918,1.307 -2.918,2.919 0,1.612 1.306,2.919 2.918,2.919 z"/><path style="fill:#ffd83d;fill-opacity:1;fill-rule:nonzero;stroke:none" id="path54949" d="m 115.013,415.662 c 1.612,0 2.919,-1.307 2.919,-2.919 0,-1.612 -1.307,-2.918 -2.919,-2.918 -1.612,0 -2.918,1.306 -2.918,2.918 0,1.612 1.306,2.919 2.918,2.919"/><path style="fill:none;stroke:#000;stroke-width:1.18200004;stroke-linecap:round;stroke-linejoin:round;stroke-miterlimit:4;stroke-dasharray:none;stroke-opacity:1" id="path54951" d="m 115.013,415.662 c 1.612,0 2.919,-1.307 2.919,-2.919 0,-1.612 -1.307,-2.918 -2.919,-2.918 -1.612,0 -2.918,1.306 -2.918,2.918 0,1.612 1.306,2.919 2.918,2.919 z"/><path style="fill:#ffd83d;fill-opacity:1;fill-rule:nonzero;stroke:none" id="path54953" d="m 108.333,416.775 c 1.612,0 2.919,-1.306 2.919,-2.918 0,-1.612 -1.307,-2.919 -2.919,-2.919 -1.612,0 -2.918,1.307 -2.918,2.919 0,1.612 1.306,2.918 2.918,2.918"/><path style="fill:none;stroke:#000;stroke-width:1.18200004;stroke-linecap:round;stroke-linejoin:round;stroke-miterlimit:4;stroke-dasharray:none;stroke-opacity:1" id="path54955" d="m 108.333,416.775 c 1.612,0 2.919,-1.306 2.919,-2.918 0,-1.612 -1.307,-2.919 -2.919,-2.919 -1.612,0 -2.918,1.307 -2.918,2.919 0,1.612 1.306,2.918 2.918,2.918 z"/><path style="fill:#ffd83d;fill-opacity:1;fill-rule:nonzero;stroke:none" id="path54957" d="m 101.653,417.435 c 1.612,0 2.919,-1.307 2.919,-2.919 0,-1.612 -1.307,-2.919 -2.919,-2.919 -1.611,0 -2.918,1.307 -2.918,2.919 0,1.612 1.307,2.919 2.918,2.919"/><path style="fill:none;stroke:#000;stroke-width:1.18200004;stroke-linecap:round;stroke-linejoin:round;stroke-miterlimit:4;stroke-dasharray:none;stroke-opacity:1" id="path54959" d="m 101.653,417.435 c 1.612,0 2.919,-1.307 2.919,-2.919 0,-1.612 -1.307,-2.919 -2.919,-2.919 -1.611,0 -2.918,1.307 -2.918,2.919 0,1.612 1.307,2.919 2.918,2.919 z"/><path style="fill:#ffd83d;fill-opacity:1;fill-rule:nonzero;stroke:none" id="path54961" d="m 95.104,417.062 c 1.611,0 2.918,-1.308 2.918,-2.919 0,-1.612 -1.307,-2.919 -2.918,-2.919 -1.612,0 -2.919,1.307 -2.919,2.919 0,1.611 1.307,2.919 2.919,2.919"/><path style="fill:none;stroke:#000;stroke-width:1.18200004;stroke-linecap:round;stroke-linejoin:round;stroke-miterlimit:4;stroke-dasharray:none;stroke-opacity:1" id="path54963" d="m 95.104,417.062 c 1.611,0 2.918,-1.308 2.918,-2.919 0,-1.612 -1.307,-2.919 -2.918,-2.919 -1.612,0 -2.919,1.307 -2.919,2.919 0,1.611 1.307,2.919 2.919,2.919 z"/><path style="fill:#ffd83d;fill-opacity:1;fill-rule:nonzero;stroke:none" id="path54965" d="m 88.859,414.923 c 1.612,0 2.919,-1.307 2.919,-2.918 0,-1.612 -1.307,-2.919 -2.919,-2.919 -1.611,0 -2.919,1.307 -2.919,2.919 0,1.611 1.308,2.918 2.919,2.918"/><path style="fill:none;stroke:#000;stroke-width:1.18200004;stroke-linecap:round;stroke-linejoin:round;stroke-miterlimit:4;stroke-dasharray:none;stroke-opacity:1" id="path54967" d="m 88.859,414.923 c 1.612,0 2.919,-1.307 2.919,-2.918 0,-1.612 -1.307,-2.919 -2.919,-2.919 -1.611,0 -2.919,1.307 -2.919,2.919 0,1.611 1.308,2.918 2.919,2.918 z"/><path style="fill:#ffd83d;fill-opacity:1;fill-rule:nonzero;stroke:none" id="path54969" d="m 83.599,411.055 c 1.612,0 2.919,-1.307 2.919,-2.919 0,-1.612 -1.307,-2.919 -2.919,-2.919 -1.612,0 -2.918,1.307 -2.918,2.919 0,1.612 1.306,2.919 2.918,2.919"/><path style="fill:none;stroke:#000;stroke-width:1.18200004;stroke-linecap:round;stroke-linejoin:round;stroke-miterlimit:4;stroke-dasharray:none;stroke-opacity:1" id="path54971" d="m 83.599,411.055 c 1.612,0 2.919,-1.307 2.919,-2.919 0,-1.612 -1.307,-2.919 -2.919,-2.919 -1.612,0 -2.918,1.307 -2.918,2.919 0,1.612 1.306,2.919 2.918,2.919 z"/><path style="fill:#ffd83d;fill-opacity:1;fill-rule:nonzero;stroke:none" id="path54973" d="m 79.866,405.659 c 1.612,0 2.919,-1.307 2.919,-2.92 0,-1.611 -1.307,-2.918 -2.919,-2.918 -1.612,0 -2.919,1.307 -2.919,2.918 0,1.613 1.307,2.92 2.919,2.92"/><path style="fill:none;stroke:#000;stroke-width:1.18200004;stroke-linecap:round;stroke-linejoin:round;stroke-miterlimit:4;stroke-dasharray:none;stroke-opacity:1" id="path54975" d="m 79.866,405.659 c 1.612,0 2.919,-1.307 2.919,-2.92 0,-1.611 -1.307,-2.918 -2.919,-2.918 -1.612,0 -2.919,1.307 -2.919,2.918 0,1.613 1.307,2.92 2.919,2.92 z"/><path style="fill:#ffd83d;fill-opacity:1;fill-rule:nonzero;stroke:none" id="path54977" d="m 78.067,399.313 c 1.612,0 2.919,-1.307 2.919,-2.919 0,-1.613 -1.307,-2.919 -2.919,-2.919 -1.612,0 -2.919,1.306 -2.919,2.919 0,1.612 1.307,2.919 2.919,2.919"/><path style="fill:none;stroke:#000;stroke-width:1.18200004;stroke-linecap:round;stroke-linejoin:round;stroke-miterlimit:4;stroke-dasharray:none;stroke-opacity:1" id="path54979" d="m 78.067,399.313 c 1.612,0 2.919,-1.307 2.919,-2.919 0,-1.613 -1.307,-2.919 -2.919,-2.919 -1.612,0 -2.919,1.306 -2.919,2.919 0,1.612 1.307,2.919 2.919,2.919 z"/><path style="fill:#ffd83d;fill-opacity:1;fill-rule:nonzero;stroke:none" id="path54981" d="m 78.135,392.729 c 1.612,0 2.919,-1.307 2.919,-2.919 0,-1.612 -1.307,-2.919 -2.919,-2.919 -1.612,0 -2.919,1.307 -2.919,2.919 0,1.612 1.307,2.919 2.919,2.919"/><path style="fill:none;stroke:#000;stroke-width:1.18200004;stroke-linecap:round;stroke-linejoin:round;stroke-miterlimit:4;stroke-dasharray:none;stroke-opacity:1" id="path54983" d="m 78.135,392.729 c 1.612,0 2.919,-1.307 2.919,-2.919 0,-1.612 -1.307,-2.919 -2.919,-2.919 -1.612,0 -2.919,1.307 -2.919,2.919 0,1.612 1.307,2.919 2.919,2.919 z"/><path style="fill:#ffd83d;fill-opacity:1;fill-rule:nonzero;stroke:none" id="path54985" d="m 79.391,386.281 c 1.611,0 2.918,-1.308 2.918,-2.919 0,-1.612 -1.307,-2.919 -2.918,-2.919 -1.612,0 -2.919,1.307 -2.919,2.919 0,1.611 1.307,2.919 2.919,2.919"/><path style="fill:none;stroke:#000;stroke-width:1.18200004;stroke-linecap:round;stroke-linejoin:round;stroke-miterlimit:4;stroke-dasharray:none;stroke-opacity:1" id="path54987" d="m 79.391,386.281 c 1.611,0 2.918,-1.308 2.918,-2.919 0,-1.612 -1.307,-2.919 -2.918,-2.919 -1.612,0 -2.919,1.307 -2.919,2.919 0,1.611 1.307,2.919 2.919,2.919 z"/><path style="fill:#ffd83d;fill-opacity:1;fill-rule:nonzero;stroke:none" id="path54989" d="m 129.516,405.625 -0.271,-3.801 c -7.262,1.112 -17.556,5.158 -27.15,5.158 -8.866,0 -15.747,-3.546 -15.747,-12.488 0,-8.814 3.732,-16.829 8.688,-24.978 l -5.159,-2.444 c -4.609,8.961 -8.416,16.572 -8.416,26.878 0,8.625 6.784,17.105 18.462,17.105 10.35,0 20.907,-3.489 29.593,-5.43"/><path style="fill:none;stroke:#000;stroke-width:1.18200004;stroke-linecap:round;stroke-linejoin:round;stroke-miterlimit:4;stroke-dasharray:none;stroke-opacity:1" id="path54991" d="m 129.516,405.625 -0.271,-3.801 c -7.262,1.112 -17.556,5.158 -27.15,5.158 -8.866,0 -15.747,-3.546 -15.747,-12.488 0,-8.814 3.732,-16.829 8.688,-24.978 l -5.159,-2.444 c -4.609,8.961 -8.416,16.572 -8.416,26.878 0,8.625 6.784,17.105 18.462,17.105 10.35,0 20.907,-3.489 29.593,-5.43 z"/><path style="fill:#ffd83d;fill-opacity:1;fill-rule:nonzero;stroke:none" id="path54993" d="m 136.937,403.996 1.086,-36.924 h 37.467 c 4.609,8.961 8.416,16.572 8.416,26.878 0,8.625 -6.784,15.475 -16.561,15.475 -10.351,0 -21.722,-3.487 -30.408,-5.429"/><path style="fill:#ffd83d;fill-opacity:1;fill-rule:nonzero;stroke:none" id="path54995" d="M 179.426,402.299 V 380.986"/><path style="fill:none;stroke:#000;stroke-width:.88599998;stroke-linecap:round;stroke-linejoin:round;stroke-miterlimit:4;stroke-dasharray:none;stroke-opacity:1" id="path54997" d="M 179.426,402.299 V 380.986"/><path style="fill:#ffd83d;fill-opacity:1;fill-rule:nonzero;stroke:none" id="path54999" d="M 176.417,404.474 V 376.097"/><path style="fill:none;stroke:#000;stroke-width:.88599998;stroke-linecap:round;stroke-linejoin:round;stroke-miterlimit:4;stroke-dasharray:none;stroke-opacity:1" id="path55001" d="M 176.417,404.474 V 376.097"/><path style="fill:#ffd83d;fill-opacity:1;fill-rule:nonzero;stroke:none" id="path55003" d="M 173.408,405.967 V 372.16"/><path style="fill:none;stroke:#000;stroke-width:.88599998;stroke-linecap:round;stroke-linejoin:round;stroke-miterlimit:4;stroke-dasharray:none;stroke-opacity:1" id="path55005" d="M 173.408,405.967 V 372.16"/><path style="fill:#ffd83d;fill-opacity:1;fill-rule:nonzero;stroke:none" id="path55007" d="M 170.399,406.665 V 380.149"/><path style="fill:none;stroke:#000;stroke-width:.88599998;stroke-linecap:round;stroke-linejoin:round;stroke-miterlimit:4;stroke-dasharray:none;stroke-opacity:1" id="path55009" d="M 170.399,406.665 V 380.149"/><path style="fill:#ffd83d;fill-opacity:1;fill-rule:nonzero;stroke:none" id="path55011" d="M 167.39,406.796 V 380.019"/><path style="fill:none;stroke:#000;stroke-width:.88599998;stroke-linecap:round;stroke-linejoin:round;stroke-miterlimit:4;stroke-dasharray:none;stroke-opacity:1" id="path55013" d="M 167.39,406.796 V 380.019"/><path style="fill:#ffd83d;fill-opacity:1;fill-rule:nonzero;stroke:none" id="path55015" d="M 164.381,407.731 V 380.033"/><path style="fill:none;stroke:#000;stroke-width:.88599998;stroke-linecap:round;stroke-linejoin:round;stroke-miterlimit:4;stroke-dasharray:none;stroke-opacity:1" id="path55017" d="M 164.381,407.731 V 380.033"/><path style="fill:#ffd83d;fill-opacity:1;fill-rule:nonzero;stroke:none" id="path55019" d="M 161.372,407.731 V 380.033"/><path style="fill:none;stroke:#000;stroke-width:.88599998;stroke-linecap:round;stroke-linejoin:round;stroke-miterlimit:4;stroke-dasharray:none;stroke-opacity:1" id="path55021" d="M 161.372,407.731 V 380.033"/><path style="fill:#ffd83d;fill-opacity:1;fill-rule:nonzero;stroke:none" id="path55023" d="M 158.363,407.46 V 379.762"/><path style="fill:none;stroke:#000;stroke-width:.88599998;stroke-linecap:round;stroke-linejoin:round;stroke-miterlimit:4;stroke-dasharray:none;stroke-opacity:1" id="path55025" d="M 158.363,407.46 V 379.762"/><path style="fill:#ffd83d;fill-opacity:1;fill-rule:nonzero;stroke:none" id="path55027" d="M 155.354,407.188 V 379.49"/><path style="fill:none;stroke:#000;stroke-width:.88599998;stroke-linecap:round;stroke-linejoin:round;stroke-miterlimit:4;stroke-dasharray:none;stroke-opacity:1" id="path55029" d="M 155.354,407.188 V 379.49"/><path style="fill:#ffd83d;fill-opacity:1;fill-rule:nonzero;stroke:none" id="path55031" d="M 152.345,405.424 V 377.726"/><path style="fill:none;stroke:#000;stroke-width:.88599998;stroke-linecap:round;stroke-linejoin:round;stroke-miterlimit:4;stroke-dasharray:none;stroke-opacity:1" id="path55033" d="M 152.345,405.424 V 377.726"/><path style="fill:#ffd83d;fill-opacity:1;fill-rule:nonzero;stroke:none" id="path55035" d="M 149.335,405.152 V 373.924"/><path style="fill:none;stroke:#000;stroke-width:.88599998;stroke-linecap:round;stroke-linejoin:round;stroke-miterlimit:4;stroke-dasharray:none;stroke-opacity:1" id="path55037" d="M 149.335,405.152 V 373.924"/><path style="fill:#ffd83d;fill-opacity:1;fill-rule:nonzero;stroke:none" id="path55039" d="M 146.326,405.152 V 377.454"/><path style="fill:none;stroke:#000;stroke-width:.88599998;stroke-linecap:round;stroke-linejoin:round;stroke-miterlimit:4;stroke-dasharray:none;stroke-opacity:1" id="path55041" d="M 146.326,405.152 V 377.454"/><path style="fill:#ffd83d;fill-opacity:1;fill-rule:nonzero;stroke:none" id="path55043" d="M 143.317,405.152 V 377.454"/><path style="fill:none;stroke:#000;stroke-width:.88599998;stroke-linecap:round;stroke-linejoin:round;stroke-miterlimit:4;stroke-dasharray:none;stroke-opacity:1" id="path55045" d="M 143.317,405.152 V 377.454"/><path style="fill:#000;fill-opacity:1;fill-rule:nonzero;stroke:none" id="path55047" d="m 160.557,406.575 c -6.358,-1.049 -20.326,-7.584 -18.733,-16.426 2.258,-12.53 9.575,-7.502 19.276,-5.702 l 7.331,-2.442 c 2.623,-2.678 6.485,-5.13 9.095,-1.901 h 4.344 v -16.969 h -48.055 v 40.996 z"/><path style="fill:none;stroke:#000;stroke-width:.88599998;stroke-linecap:round;stroke-linejoin:round;stroke-miterlimit:4;stroke-dasharray:none;stroke-opacity:1" id="path55049" d="m 160.557,406.575 c -6.358,-1.049 -20.326,-7.584 -18.733,-16.426 2.258,-12.53 9.575,-7.502 19.276,-5.702 l 7.331,-2.442 c 2.623,-2.678 6.485,-5.13 9.095,-1.901 h 4.344 v -16.969 h -48.055 v 40.996 z"/><path style="fill:#ffd83d;fill-opacity:1;fill-rule:nonzero;stroke:none" id="path55051" d="m 139.042,412.412 c -1.613,0 -2.919,-1.307 -2.919,-2.919 0,-1.611 1.306,-2.918 2.919,-2.918 1.611,0 2.918,1.307 2.918,2.918 0,1.612 -1.307,2.919 -2.918,2.919"/><path style="fill:none;stroke:#000;stroke-width:1.18200004;stroke-linecap:round;stroke-linejoin:round;stroke-miterlimit:4;stroke-dasharray:none;stroke-opacity:1" id="path55053" d="m 139.042,412.412 c -1.613,0 -2.919,-1.307 -2.919,-2.919 0,-1.611 1.306,-2.918 2.919,-2.918 1.611,0 2.918,1.307 2.918,2.918 0,1.612 -1.307,2.919 -2.918,2.919 z"/><path style="fill:#ffd83d;fill-opacity:1;fill-rule:nonzero;stroke:none" id="path55055" d="m 145.601,413.991 c -1.613,0 -2.919,-1.307 -2.919,-2.919 0,-1.612 1.306,-2.919 2.919,-2.919 1.611,0 2.918,1.307 2.918,2.919 0,1.612 -1.307,2.919 -2.918,2.919"/><path style="fill:none;stroke:#000;stroke-width:1.18200004;stroke-linecap:round;stroke-linejoin:round;stroke-miterlimit:4;stroke-dasharray:none;stroke-opacity:1" id="path55057" d="m 145.601,413.991 c -1.613,0 -2.919,-1.307 -2.919,-2.919 0,-1.612 1.306,-2.919 2.919,-2.919 1.611,0 2.918,1.307 2.918,2.919 0,1.612 -1.307,2.919 -2.918,2.919 z"/><path style="fill:#ffd83d;fill-opacity:1;fill-rule:nonzero;stroke:none" id="path55059" d="m 152.254,415.662 c -1.611,0 -2.918,-1.307 -2.918,-2.919 0,-1.612 1.307,-2.918 2.918,-2.918 1.612,0 2.919,1.306 2.919,2.918 0,1.612 -1.307,2.919 -2.919,2.919"/><path style="fill:none;stroke:#000;stroke-width:1.18200004;stroke-linecap:round;stroke-linejoin:round;stroke-miterlimit:4;stroke-dasharray:none;stroke-opacity:1" id="path55061" d="m 152.254,415.662 c -1.611,0 -2.918,-1.307 -2.918,-2.919 0,-1.612 1.307,-2.918 2.918,-2.918 1.612,0 2.919,1.306 2.919,2.918 0,1.612 -1.307,2.919 -2.919,2.919 z"/><path style="fill:#ffd83d;fill-opacity:1;fill-rule:nonzero;stroke:none" id="path55063" d="m 158.934,416.775 c -1.612,0 -2.918,-1.306 -2.918,-2.918 0,-1.612 1.306,-2.919 2.918,-2.919 1.612,0 2.919,1.307 2.919,2.919 0,1.612 -1.307,2.918 -2.919,2.918"/><path style="fill:none;stroke:#000;stroke-width:1.18200004;stroke-linecap:round;stroke-linejoin:round;stroke-miterlimit:4;stroke-dasharray:none;stroke-opacity:1" id="path55065" d="m 158.934,416.775 c -1.612,0 -2.918,-1.306 -2.918,-2.918 0,-1.612 1.306,-2.919 2.918,-2.919 1.612,0 2.919,1.307 2.919,2.919 0,1.612 -1.307,2.918 -2.919,2.918 z"/><path style="fill:#ffd83d;fill-opacity:1;fill-rule:nonzero;stroke:none" id="path55067" d="m 165.614,417.435 c -1.612,0 -2.919,-1.307 -2.919,-2.919 0,-1.612 1.307,-2.919 2.919,-2.919 1.612,0 2.918,1.307 2.918,2.919 0,1.612 -1.306,2.919 -2.918,2.919"/><path style="fill:none;stroke:#000;stroke-width:1.18200004;stroke-linecap:round;stroke-linejoin:round;stroke-miterlimit:4;stroke-dasharray:none;stroke-opacity:1" id="path55069" d="m 165.614,417.435 c -1.612,0 -2.919,-1.307 -2.919,-2.919 0,-1.612 1.307,-2.919 2.919,-2.919 1.612,0 2.918,1.307 2.918,2.919 0,1.612 -1.306,2.919 -2.918,2.919 z"/><path style="fill:#ffd83d;fill-opacity:1;fill-rule:nonzero;stroke:none" id="path55071" d="m 172.164,417.062 c -1.612,0 -2.919,-1.308 -2.919,-2.919 0,-1.612 1.307,-2.919 2.919,-2.919 1.611,0 2.919,1.307 2.919,2.919 0,1.611 -1.308,2.919 -2.919,2.919"/><path style="fill:none;stroke:#000;stroke-width:1.18200004;stroke-linecap:round;stroke-linejoin:round;stroke-miterlimit:4;stroke-dasharray:none;stroke-opacity:1" id="path55073" d="m 172.164,417.062 c -1.612,0 -2.919,-1.308 -2.919,-2.919 0,-1.612 1.307,-2.919 2.919,-2.919 1.611,0 2.919,1.307 2.919,2.919 0,1.611 -1.308,2.919 -2.919,2.919 z"/><path style="fill:#ffd83d;fill-opacity:1;fill-rule:nonzero;stroke:none" id="path55075" d="m 178.408,414.923 c -1.612,0 -2.918,-1.307 -2.918,-2.918 0,-1.612 1.306,-2.919 2.918,-2.919 1.612,0 2.919,1.307 2.919,2.919 0,1.611 -1.307,2.918 -2.919,2.918"/><path style="fill:none;stroke:#000;stroke-width:1.18200004;stroke-linecap:round;stroke-linejoin:round;stroke-miterlimit:4;stroke-dasharray:none;stroke-opacity:1" id="path55077" d="m 178.408,414.923 c -1.612,0 -2.918,-1.307 -2.918,-2.918 0,-1.612 1.306,-2.919 2.918,-2.919 1.612,0 2.919,1.307 2.919,2.919 0,1.611 -1.307,2.918 -2.919,2.918 z"/><path style="fill:#ffd83d;fill-opacity:1;fill-rule:nonzero;stroke:none" id="path55079" d="m 183.668,411.055 c -1.611,0 -2.918,-1.307 -2.918,-2.919 0,-1.612 1.307,-2.919 2.918,-2.919 1.612,0 2.919,1.307 2.919,2.919 0,1.612 -1.307,2.919 -2.919,2.919"/><path style="fill:none;stroke:#000;stroke-width:1.18200004;stroke-linecap:round;stroke-linejoin:round;stroke-miterlimit:4;stroke-dasharray:none;stroke-opacity:1" id="path55081" d="m 183.668,411.055 c -1.611,0 -2.918,-1.307 -2.918,-2.919 0,-1.612 1.307,-2.919 2.918,-2.919 1.612,0 2.919,1.307 2.919,2.919 0,1.612 -1.307,2.919 -2.919,2.919 z"/><path style="fill:#ffd83d;fill-opacity:1;fill-rule:nonzero;stroke:none" id="path55083" d="m 187.401,405.659 c -1.611,0 -2.918,-1.307 -2.918,-2.92 0,-1.611 1.307,-2.918 2.918,-2.918 1.613,0 2.919,1.307 2.919,2.918 0,1.613 -1.306,2.92 -2.919,2.92"/><path style="fill:none;stroke:#000;stroke-width:1.18200004;stroke-linecap:round;stroke-linejoin:round;stroke-miterlimit:4;stroke-dasharray:none;stroke-opacity:1" id="path55085" d="m 187.401,405.659 c -1.611,0 -2.918,-1.307 -2.918,-2.92 0,-1.611 1.307,-2.918 2.918,-2.918 1.613,0 2.919,1.307 2.919,2.918 0,1.613 -1.306,2.92 -2.919,2.92 z"/><path style="fill:#ffd83d;fill-opacity:1;fill-rule:nonzero;stroke:none" id="path55087" d="m 189.2,399.313 c -1.612,0 -2.918,-1.307 -2.918,-2.919 0,-1.613 1.306,-2.919 2.918,-2.919 1.612,0 2.919,1.306 2.919,2.919 0,1.612 -1.307,2.919 -2.919,2.919"/><path style="fill:none;stroke:#000;stroke-width:1.18200004;stroke-linecap:round;stroke-linejoin:round;stroke-miterlimit:4;stroke-dasharray:none;stroke-opacity:1" id="path55089" d="m 189.2,399.313 c -1.612,0 -2.918,-1.307 -2.918,-2.919 0,-1.613 1.306,-2.919 2.918,-2.919 1.612,0 2.919,1.306 2.919,2.919 0,1.612 -1.307,2.919 -2.919,2.919 z"/><path style="fill:#ffd83d;fill-opacity:1;fill-rule:nonzero;stroke:none" id="path55091" d="m 189.132,392.729 c -1.611,0 -2.918,-1.307 -2.918,-2.919 0,-1.612 1.307,-2.919 2.918,-2.919 1.612,0 2.919,1.307 2.919,2.919 0,1.612 -1.307,2.919 -2.919,2.919"/><path style="fill:none;stroke:#000;stroke-width:1.18200004;stroke-linecap:round;stroke-linejoin:round;stroke-miterlimit:4;stroke-dasharray:none;stroke-opacity:1" id="path55093" d="m 189.132,392.729 c -1.611,0 -2.918,-1.307 -2.918,-2.919 0,-1.612 1.307,-2.919 2.918,-2.919 1.612,0 2.919,1.307 2.919,2.919 0,1.612 -1.307,2.919 -2.919,2.919 z"/><path style="fill:#ffd83d;fill-opacity:1;fill-rule:nonzero;stroke:none" id="path55095" d="m 187.876,386.281 c -1.611,0 -2.918,-1.308 -2.918,-2.919 0,-1.612 1.307,-2.919 2.918,-2.919 1.612,0 2.919,1.307 2.919,2.919 0,1.611 -1.307,2.919 -2.919,2.919"/><path style="fill:none;stroke:#000;stroke-width:1.18200004;stroke-linecap:round;stroke-linejoin:round;stroke-miterlimit:4;stroke-dasharray:none;stroke-opacity:1" id="path55097" d="m 187.876,386.281 c -1.611,0 -2.918,-1.308 -2.918,-2.919 0,-1.612 1.307,-2.919 2.918,-2.919 1.612,0 2.919,1.307 2.919,2.919 0,1.611 -1.307,2.919 -2.919,2.919 z"/><path style="fill:#ffd83d;fill-opacity:1;fill-rule:nonzero;stroke:none" id="path55099" d="m 137.751,405.625 0.272,-3.801 c 7.261,1.112 17.555,5.158 27.149,5.158 8.866,0 15.747,-3.546 15.747,-12.488 0,-8.814 -3.732,-16.829 -8.688,-24.978 l 5.159,-2.444 c 4.61,8.961 8.417,16.572 8.417,26.878 0,8.625 -6.785,17.105 -18.462,17.105 -10.351,0 -20.908,-3.489 -29.594,-5.43"/><path style="fill:none;stroke:#000;stroke-width:1.18200004;stroke-linecap:round;stroke-linejoin:round;stroke-miterlimit:4;stroke-dasharray:none;stroke-opacity:1" id="path55101" d="m 137.751,405.625 0.272,-3.801 c 7.261,1.112 17.555,5.158 27.149,5.158 8.866,0 15.747,-3.546 15.747,-12.488 0,-8.814 -3.732,-16.829 -8.688,-24.978 l 5.159,-2.444 c 4.61,8.961 8.417,16.572 8.417,26.878 0,8.625 -6.785,17.105 -18.462,17.105 -10.351,0 -20.908,-3.489 -29.594,-5.43 z"/><path style="fill:#ffd83d;fill-opacity:1;fill-rule:nonzero;stroke:none" id="path55103" d="m 133.633,430.456 -3.046,-5.686 3.046,-5.706 3.047,5.706 z m 0,14.399 -3.046,-5.704 3.046,-5.686 3.047,5.686 z"/><path style="fill:none;stroke:#000;stroke-width:1.18200004;stroke-linecap:round;stroke-linejoin:round;stroke-miterlimit:4;stroke-dasharray:none;stroke-opacity:1" id="path55105" d="m 133.633,430.456 -3.046,-5.686 3.046,-5.706 3.047,5.706 z m 0,14.399 -3.046,-5.704 3.046,-5.686 3.047,5.686 z"/><path style="fill:#ffd83d;fill-opacity:1;fill-rule:nonzero;stroke:none" id="path55107" d="m 134.901,431.96 4.788,-3.046 4.804,3.046 -4.804,3.046 z m -12.127,0 4.804,-3.046 4.789,3.046 -4.789,3.046 z"/><path style="fill:none;stroke:#000;stroke-width:1.18200004;stroke-linecap:round;stroke-linejoin:round;stroke-miterlimit:4;stroke-dasharray:none;stroke-opacity:1" id="path55109" d="m 134.901,431.96 4.788,-3.046 4.804,3.046 -4.804,3.046 z m -12.127,0 4.804,-3.046 4.789,3.046 -4.789,3.046 z"/><path style="fill:#ffd83d;fill-opacity:1;fill-rule:nonzero;stroke:none" id="path55111" d="m 133.633,434.2 c 1.275,0 2.308,-1.034 2.308,-2.308 0,-1.275 -1.033,-2.308 -2.308,-2.308 -1.274,0 -2.307,1.033 -2.307,2.308 0,1.274 1.033,2.308 2.307,2.308"/><path style="fill:none;stroke:#000;stroke-width:1.18200004;stroke-linecap:round;stroke-linejoin:round;stroke-miterlimit:4;stroke-dasharray:none;stroke-opacity:1" id="path55113" d="m 133.633,434.2 c 1.275,0 2.308,-1.034 2.308,-2.308 0,-1.275 -1.033,-2.308 -2.308,-2.308 -1.274,0 -2.307,1.033 -2.307,2.308 0,1.274 1.033,2.308 2.307,2.308 z"/><path style="fill:#ffd83d;fill-opacity:1;fill-rule:nonzero;stroke:none" id="path55115" d="m 133.633,423.34 c 3.412,0 6.177,-2.766 6.177,-6.177 0,-3.411 -2.765,-6.177 -6.177,-6.177 -3.41,0 -6.176,2.766 -6.176,6.177 0,3.411 2.766,6.177 6.176,6.177"/><path style="fill:none;stroke:#000;stroke-width:1.18200004;stroke-linecap:round;stroke-linejoin:round;stroke-miterlimit:4;stroke-dasharray:none;stroke-opacity:1" id="path55117" d="m 133.633,423.34 c 3.412,0 6.177,-2.766 6.177,-6.177 0,-3.411 -2.765,-6.177 -6.177,-6.177 -3.41,0 -6.176,2.766 -6.176,6.177 0,3.411 2.766,6.177 6.176,6.177 z"/><path style="fill:none;stroke:#000;stroke-width:.88599998;stroke-linecap:round;stroke-linejoin:round;stroke-miterlimit:4;stroke-dasharray:none;stroke-opacity:1" id="path55119" d="m 127.652,415.649 c 1.947,0.326 3.943,0.498 5.981,0.498 2.039,0 4.036,-0.172 5.982,-0.498 m -0.018,3.12 c -1.437,0.239 -2.905,0.396 -4.394,0.462 v 3.914 m -3.12,0 c 0,-1.84 -0.013,-2.909 -0.019,-3.914 -1.489,-0.066 -2.957,-0.223 -4.393,-0.462"/><path style="fill:#ffd83d;fill-opacity:1;fill-rule:nonzero;stroke:none" id="path55121" d="m 139.671,406.714 -4.062,-0.683 c 0.679,-5.17 1.148,-16.108 3.378,-24.573 l 6.388,-2.585 c -3.927,7.472 -5.118,17.75 -5.704,27.841 m -12.074,0 c -0.586,-10.091 -1.778,-20.369 -5.705,-27.841 l 6.388,2.585 c 2.231,8.465 2.699,19.403 3.378,24.573 z"/><path style="fill:none;stroke:#000;stroke-width:1.18200004;stroke-linecap:round;stroke-linejoin:round;stroke-miterlimit:4;stroke-dasharray:none;stroke-opacity:1" id="path55123" d="m 139.671,406.714 -4.062,-0.683 c 0.679,-5.17 1.148,-16.108 3.378,-24.573 l 6.388,-2.585 c -3.927,7.472 -5.118,17.75 -5.704,27.841 z m -12.074,0 c -0.586,-10.091 -1.778,-20.369 -5.705,-27.841 l 6.388,2.585 c 2.231,8.465 2.699,19.403 3.378,24.573 z"/><path style="fill:#ffd83d;fill-opacity:1;fill-rule:nonzero;stroke:none" id="path55125" d="m 133.625,384.855 c -7.629,0 -13.233,-3.596 -13.57,-12.757 -1.865,3.281 -9.754,13.604 -17.114,12.222 -4.378,-0.822 -8.245,-6.892 -7.588,-13.846 -3.624,10.414 -14.242,12.121 -21.988,5.963 6.879,-5.656 9.938,-22.353 15.73,-29.595 h 44.53 44.529 c 5.792,7.242 8.87,23.939 15.748,29.595 -7.746,6.158 -18.363,4.451 -21.988,-5.963 0.658,6.954 -3.229,13.024 -7.606,13.846 -7.36,1.382 -15.231,-8.941 -17.096,-12.222 -0.337,9.161 -5.959,12.757 -13.587,12.757"/><path style="fill:none;stroke:#000;stroke-width:1.18200004;stroke-linecap:round;stroke-linejoin:round;stroke-miterlimit:4;stroke-dasharray:none;stroke-opacity:1" id="path55127" d="m 133.625,384.855 c -7.629,0 -13.233,-3.596 -13.57,-12.757 -1.865,3.281 -9.754,13.604 -17.114,12.222 -4.378,-0.822 -8.245,-6.892 -7.588,-13.846 -3.624,10.414 -14.242,12.121 -21.988,5.963 6.879,-5.656 9.938,-22.353 15.73,-29.595 h 44.53 44.529 c 5.792,7.242 8.87,23.939 15.748,29.595 -7.746,6.158 -18.363,4.451 -21.988,-5.963 0.658,6.954 -3.229,13.024 -7.606,13.846 -7.36,1.382 -15.231,-8.941 -17.096,-12.222 -0.337,9.161 -5.959,12.757 -13.587,12.757 z"/><path style="fill:#000;fill-opacity:1;fill-rule:nonzero;stroke:none" id="path55129" d="m 178.023,346.845 c 0,-3.296 -19.886,-6.923 -44.39,-6.923 -24.502,0 -44.389,3.627 -44.389,6.923 0,3.298 19.887,5.023 44.389,5.023 24.504,0 44.39,-1.725 44.39,-5.023"/><path style="fill:none;stroke:#000;stroke-width:.88599998;stroke-linecap:round;stroke-linejoin:round;stroke-miterlimit:4;stroke-dasharray:none;stroke-opacity:1" id="path55131" d="m 178.023,346.845 c 0,-3.296 -19.886,-6.923 -44.39,-6.923 -24.502,0 -44.389,3.627 -44.389,6.923 0,3.298 19.887,5.023 44.389,5.023 24.504,0 44.39,-1.725 44.39,-5.023 z"/><path style="fill:#ffd83d;fill-opacity:1;fill-rule:nonzero;stroke:none" id="path55133" d="m 133.633,410.7 c 1.144,0 2.071,-0.927 2.071,-2.071 0,-1.143 -0.927,-2.069 -2.071,-2.069 -1.143,0 -2.069,0.926 -2.069,2.069 0,1.144 0.926,2.071 2.069,2.071"/><path style="fill:none;stroke:#000;stroke-width:.88599998;stroke-linecap:round;stroke-linejoin:round;stroke-miterlimit:4;stroke-dasharray:none;stroke-opacity:1" id="path55135" d="m 133.633,410.7 c 1.144,0 2.071,-0.927 2.071,-2.071 0,-1.143 -0.927,-2.069 -2.071,-2.069 -1.143,0 -2.069,0.926 -2.069,2.069 0,1.144 0.926,2.071 2.069,2.071 z"/><path style="fill:#ffd83d;fill-opacity:1;fill-rule:nonzero;stroke:none" id="path55137" d="m 133.633,406.355 c 1.219,0 2.206,-0.987 2.206,-2.205 0,-1.218 -0.987,-2.207 -2.206,-2.207 -1.217,0 -2.205,0.989 -2.205,2.207 0,1.218 0.988,2.205 2.205,2.205"/><path style="fill:none;stroke:#000;stroke-width:.88599998;stroke-linecap:round;stroke-linejoin:round;stroke-miterlimit:4;stroke-dasharray:none;stroke-opacity:1" id="path55139" d="m 133.633,406.355 c 1.219,0 2.206,-0.987 2.206,-2.205 0,-1.218 -0.987,-2.207 -2.206,-2.207 -1.217,0 -2.205,0.989 -2.205,2.207 0,1.218 0.988,2.205 2.205,2.205 z"/><path style="fill:#ffd83d;fill-opacity:1;fill-rule:nonzero;stroke:none" id="path55141" d="m 133.633,401.74 c 1.331,0 2.41,-1.079 2.41,-2.409 0,-1.331 -1.079,-2.41 -2.41,-2.41 -1.33,0 -2.409,1.079 -2.409,2.41 0,1.33 1.079,2.409 2.409,2.409"/><path style="fill:none;stroke:#000;stroke-width:.88599998;stroke-linecap:round;stroke-linejoin:round;stroke-miterlimit:4;stroke-dasharray:none;stroke-opacity:1" id="path55143" d="m 133.633,401.74 c 1.331,0 2.41,-1.079 2.41,-2.409 0,-1.331 -1.079,-2.41 -2.41,-2.41 -1.33,0 -2.409,1.079 -2.409,2.41 0,1.33 1.079,2.409 2.409,2.409 z"/><path style="fill:#ffd83d;fill-opacity:1;fill-rule:nonzero;stroke:none" id="path55145" d="m 133.633,396.718 c 1.519,0 2.749,-1.231 2.749,-2.749 0,-1.519 -1.23,-2.749 -2.749,-2.749 -1.517,0 -2.748,1.23 -2.748,2.749 0,1.518 1.231,2.749 2.748,2.749"/><path style="fill:none;stroke:#000;stroke-width:.88599998;stroke-linecap:round;stroke-linejoin:round;stroke-miterlimit:4;stroke-dasharray:none;stroke-opacity:1" id="path55147" d="m 133.633,396.718 c 1.519,0 2.749,-1.231 2.749,-2.749 0,-1.519 -1.23,-2.749 -2.749,-2.749 -1.517,0 -2.748,1.23 -2.748,2.749 0,1.518 1.231,2.749 2.748,2.749 z"/><path style="fill:#ffd83d;fill-opacity:1;fill-rule:nonzero;stroke:none" id="path55149" d="m 133.633,391.016 c 1.669,0 3.021,-1.352 3.021,-3.02 0,-1.668 -1.352,-3.02 -3.021,-3.02 -1.668,0 -3.02,1.352 -3.02,3.02 0,1.668 1.352,3.02 3.02,3.02"/><path style="fill:none;stroke:#000;stroke-width:.88599998;stroke-linecap:round;stroke-linejoin:round;stroke-miterlimit:4;stroke-dasharray:none;stroke-opacity:1" id="path55151" d="m 133.633,391.016 c 1.669,0 3.021,-1.352 3.021,-3.02 0,-1.668 -1.352,-3.02 -3.021,-3.02 -1.668,0 -3.02,1.352 -3.02,3.02 0,1.668 1.352,3.02 3.02,3.02 z"/><path style="fill:#000;fill-opacity:1;fill-rule:nonzero;stroke:none" id="path55153" d="m 181.375,370.001 c -0.172,-0.016 -0.413,-0.13 -0.646,-0.314 -0.62,-0.49 -2.516,-2.44 -3.267,-3.452 -0.752,-1.012 -1.54,-0.848 -1.735,-0.554 -0.197,0.294 -0.481,1.073 -0.628,1.661 -0.217,0.868 -0.745,0.931 -0.794,0 -0.049,-0.931 0.352,-2.019 0.646,-3.637 0.294,-1.617 -0.034,-4.287 -1.385,-7.439 -0.441,-1.03 0.354,-0.635 0.942,0.443 1.445,2.649 5.047,5.565 8.64,8.178 0.698,0.507 0.556,1.023 -0.424,0.794 -0.98,-0.229 -1.507,-1.015 -2.585,-1.015 -0.361,0 -0.748,-0.01 -0.683,0.775 0.065,0.784 1.038,2.613 1.919,3.822 0.389,0.531 0.29,0.764 0,0.738 m -95.483,0 c -0.289,0.026 -0.388,-0.207 0,-0.738 0.881,-1.209 1.854,-3.038 1.92,-3.822 0.065,-0.785 -0.323,-0.775 -0.684,-0.775 -1.077,0 -1.604,0.786 -2.584,1.015 -0.98,0.229 -1.123,-0.287 -0.425,-0.794 3.593,-2.613 7.195,-5.529 8.64,-8.178 0.588,-1.078 1.383,-1.473 0.942,-0.443 -1.351,3.152 -1.679,5.822 -1.385,7.439 0.295,1.618 0.695,2.706 0.646,3.637 -0.048,0.931 -0.576,0.868 -0.794,0 -0.147,-0.588 -0.431,-1.367 -0.627,-1.661 -0.196,-0.294 -0.984,-0.458 -1.735,0.554 -0.752,1.012 -2.647,2.962 -3.268,3.452 -0.233,0.184 -0.473,0.298 -0.646,0.314 m 83.133,2.465 c -0.161,-0.017 -0.323,-0.092 -0.406,-0.239 -0.294,-0.524 -0.951,-1.367 -1.385,-2.068 -0.424,-0.686 0.237,-0.807 0.498,-0.48 0.262,0.326 1.013,0.946 1.699,1.827 0.429,0.552 0.107,0.905 -0.259,0.96 -0.054,0.009 -0.094,0.006 -0.147,0 m -70.93,0 c -0.366,-0.055 -0.688,-0.408 -0.259,-0.96 0.686,-0.881 1.437,-1.501 1.699,-1.827 0.261,-0.327 0.923,-0.206 0.498,0.48 -0.433,0.701 -1.09,1.544 -1.384,2.068 -0.111,0.195 -0.335,0.272 -0.554,0.239 m 78.813,0.839 c -0.233,-0.016 -0.505,-0.225 -0.554,-0.535 -0.098,-0.621 -0.203,-1.277 -0.203,-1.864 0,-0.589 0.428,-0.695 0.591,-0.074 0.163,0.62 0.362,1.168 0.498,1.827 0.098,0.474 -0.099,0.663 -0.332,0.646 m -86.549,0 c -0.233,0.017 -0.43,-0.172 -0.332,-0.646 0.137,-0.659 0.335,-1.207 0.498,-1.827 0.163,-0.621 0.592,-0.515 0.592,0.074 0,0.587 -0.105,1.243 -0.204,1.864 -0.049,0.31 -0.321,0.519 -0.554,0.535 m 77.983,2.336 c -0.126,-0.022 -0.284,-0.169 -0.48,-0.48 -0.784,-1.241 -1.22,-1.761 -1.514,-2.252 -0.294,-0.49 0.008,-1.013 0.499,-0.425 0.591,0.711 1.181,1.342 1.606,1.866 0.318,0.391 0.264,1.358 -0.111,1.291 m -69.417,0 c -0.375,0.067 -0.428,-0.9 -0.11,-1.291 0.424,-0.524 1.015,-1.155 1.606,-1.866 0.49,-0.588 0.793,-0.065 0.498,0.425 -0.293,0.491 -0.73,1.011 -1.513,2.252 -0.197,0.311 -0.355,0.458 -0.481,0.48 m 80.513,-1.024 c -0.323,0.003 -0.692,-0.197 -0.758,-0.573 -0.13,-0.751 -0.179,-1.161 -0.277,-1.846 -0.097,-0.686 0.428,-0.915 0.591,-0.425 0.163,0.49 0.651,1.338 0.886,2.123 0.147,0.49 -0.12,0.716 -0.442,0.721 m -91.608,0 c -0.322,-0.005 -0.59,-0.231 -0.443,-0.721 0.236,-0.785 0.723,-1.633 0.886,-2.123 0.164,-0.49 0.689,-0.261 0.591,0.425 -0.098,0.685 -0.146,1.095 -0.277,1.846 -0.066,0.376 -0.434,0.576 -0.757,0.573 m 73.533,1.431 c -0.151,-0.028 -0.333,-0.224 -0.48,-0.647 -0.392,-1.127 -1.708,-3.61 -2.344,-4.541 -0.638,-0.931 -1.431,-0.506 -1.921,0.573 -0.735,1.616 -1.199,0.661 -0.738,-0.333 1.225,-2.646 1.069,-6.866 0.259,-12 -0.148,-0.931 0.376,-0.833 0.571,0 0.959,4.075 3.439,7.435 7.016,10.375 0.705,0.58 0.194,0.99 -0.295,0.646 -0.49,-0.343 -1.122,-0.696 -1.661,-0.941 -0.54,-0.244 -0.942,-0.144 -1.09,0.591 -0.147,0.735 0.109,2.309 0.942,5.298 0.15,0.539 0.034,0.924 -0.166,0.979 -0.029,0.007 -0.061,0.006 -0.093,0 m -55.551,0 c -0.201,-0.055 -0.317,-0.44 -0.166,-0.979 0.833,-2.989 1.088,-4.563 0.941,-5.298 -0.147,-0.735 -0.55,-0.835 -1.089,-0.591 -0.539,0.245 -1.172,0.598 -1.662,0.941 -0.489,0.344 -0.999,-0.066 -0.295,-0.646 3.577,-2.94 6.057,-6.3 7.015,-10.375 0.196,-0.833 0.72,-0.931 0.573,0 -0.811,5.134 -0.967,9.354 0.258,12 0.461,0.994 -0.003,1.949 -0.739,0.333 -0.489,-1.079 -1.282,-1.504 -1.919,-0.573 -0.637,0.931 -1.953,3.414 -2.345,4.541 -0.147,0.423 -0.328,0.619 -0.48,0.647 -0.031,0.006 -0.063,0.007 -0.092,0 m 37.754,-1.173 c -0.178,-0.028 -0.357,-0.198 -0.443,-0.554 -0.228,-0.947 -0.294,-1.724 -0.425,-2.345 -0.13,-0.621 0.664,-0.612 0.794,0.074 0.135,0.711 0.359,1.437 0.554,2.123 0.107,0.375 -0.113,0.666 -0.369,0.702 -0.037,0.005 -0.073,0.006 -0.111,0 m -19.976,0 c -0.256,-0.036 -0.476,-0.327 -0.369,-0.702 0.196,-0.686 0.419,-1.412 0.554,-2.123 0.131,-0.686 0.925,-0.695 0.794,-0.074 -0.131,0.621 -0.196,1.398 -0.424,2.345 -0.086,0.356 -0.266,0.526 -0.444,0.554 -0.037,0.006 -0.074,0.005 -0.111,0 m 64.783,0.424 c -0.152,0.002 -0.346,-0.043 -0.591,-0.166 -0.98,-0.49 -1.362,-0.987 -1.754,-1.476 -0.392,-0.49 -0.107,-1.032 0.628,-0.444 0.627,0.503 1.27,0.938 1.809,1.329 0.404,0.295 0.365,0.753 -0.092,0.757 m -109.478,0 c -0.457,-0.004 -0.497,-0.462 -0.093,-0.757 0.539,-0.391 1.182,-0.826 1.81,-1.329 0.735,-0.588 1.019,-0.046 0.627,0.444 -0.392,0.489 -0.774,0.986 -1.754,1.476 -0.245,0.123 -0.438,0.168 -0.59,0.166 m 103.717,0.203 c -0.314,0.005 -0.741,-0.221 -0.904,-0.646 -0.327,-0.849 -0.397,-1.319 -0.757,-2.233 -0.359,-0.915 0.537,-0.718 0.831,-0.129 0.294,0.587 0.757,1.462 1.108,2.233 0.245,0.539 0.037,0.772 -0.278,0.775 m -97.958,0 c -0.314,-0.003 -0.521,-0.236 -0.276,-0.775 0.351,-0.771 0.813,-1.646 1.107,-2.233 0.294,-0.589 1.19,-0.786 0.831,0.129 -0.359,0.914 -0.43,1.384 -0.756,2.233 -0.164,0.425 -0.591,0.651 -0.906,0.646 m 100.931,0.591 c -0.179,-0.01 -0.415,-0.169 -0.683,-0.572 -0.49,-0.735 -0.844,-1.184 -1.089,-1.625 -0.246,-0.441 -0.103,-1.013 0.387,-0.572 0.618,0.557 0.993,0.921 1.533,1.607 0.37,0.471 0.246,1.183 -0.148,1.162 m -103.903,0 c -0.394,0.021 -0.517,-0.691 -0.147,-1.162 0.539,-0.686 0.914,-1.05 1.532,-1.607 0.49,-0.441 0.632,0.131 0.388,0.572 -0.246,0.441 -0.6,0.89 -1.089,1.625 -0.269,0.403 -0.504,0.562 -0.684,0.572 m 85.183,1.968 c -0.205,0.015 -0.45,-0.113 -0.61,-0.444 -0.424,-0.882 -0.545,-1.595 -0.904,-2.216 -0.359,-0.62 0.149,-0.951 0.443,-0.461 0.294,0.49 0.936,1.348 1.311,2.031 0.347,0.633 0.102,1.062 -0.24,1.09 m -66.462,0 c -0.342,-0.028 -0.588,-0.457 -0.24,-1.09 0.374,-0.683 1.016,-1.541 1.31,-2.031 0.295,-0.49 0.803,-0.159 0.444,0.461 -0.359,0.621 -0.48,1.334 -0.905,2.216 -0.159,0.331 -0.405,0.459 -0.609,0.444 m 54.074,0.239 c -0.26,-0.007 -0.594,-0.292 -0.702,-0.757 -0.195,-0.849 -0.187,-1.076 -0.35,-1.828 -0.164,-0.751 0.519,-0.869 0.683,-0.314 0.163,0.556 0.573,1.716 0.683,2.308 0.062,0.331 -0.044,0.523 -0.204,0.573 -0.033,0.01 -0.073,0.019 -0.11,0.018 m -41.686,0 c -0.038,10e-4 -0.078,-0.008 -0.112,-0.018 -0.158,-0.05 -0.263,-0.242 -0.202,-0.573 0.109,-0.592 0.519,-1.752 0.683,-2.308 0.163,-0.555 0.846,-0.437 0.683,0.314 -0.164,0.752 -0.155,0.979 -0.351,1.828 -0.107,0.465 -0.441,0.75 -0.701,0.757 m 20.842,-0.951 c -0.424,0 -0.483,-0.571 -0.498,-1.034 -0.049,-1.52 -0.679,-2.995 -1.218,-3.73 -0.539,-0.734 -1.333,-0.539 -2.068,-0.147 -0.735,0.392 -1.173,0.686 -1.957,1.274 -0.784,0.588 -1.378,0.244 -0.443,-1.089 2.728,-3.888 5.686,-7.211 5.686,-13.551 0,-0.821 0.144,-1.072 0.498,-1.072 0.356,0 0.517,0.251 0.517,1.072 0,6.34 2.941,9.663 5.668,13.551 0.936,1.333 0.341,1.677 -0.443,1.089 -0.784,-0.588 -1.222,-0.882 -1.957,-1.274 -0.735,-0.392 -1.528,-0.587 -2.067,0.147 -0.54,0.735 -1.17,2.21 -1.219,3.73 -0.015,0.463 -0.073,1.034 -0.499,1.034 m 8.419,0.701 c -0.206,0 -0.413,-0.175 -0.498,-0.591 -0.229,-1.11 -0.318,-1.822 -0.351,-2.345 -0.033,-0.522 0.524,-0.913 0.72,-0.128 0.221,0.884 0.524,1.492 0.72,2.178 0.123,0.429 -0.246,0.886 -0.591,0.886 m -16.837,0 c -0.345,0 -0.714,-0.457 -0.59,-0.886 0.195,-0.686 0.499,-1.294 0.719,-2.178 0.196,-0.785 0.753,-0.394 0.72,0.128 -0.032,0.523 -0.122,1.235 -0.351,2.345 -0.085,0.416 -0.291,0.591 -0.498,0.591 m 39.6,1.654 c -0.197,0.019 -0.397,-0.132 -0.517,-0.61 -0.163,-0.653 -0.331,-1.185 -0.461,-1.643 -0.13,-0.457 0.227,-1.014 0.554,-0.295 0.315,0.693 0.522,0.916 0.849,1.569 0.204,0.408 -0.095,0.945 -0.425,0.979 m -62.363,0 c -0.329,-0.034 -0.629,-0.571 -0.425,-0.979 0.327,-0.653 0.535,-0.876 0.849,-1.569 0.328,-0.719 0.685,-0.162 0.554,0.295 -0.131,0.458 -0.298,0.99 -0.461,1.643 -0.12,0.478 -0.32,0.629 -0.517,0.61 m 55.052,0.405 c -0.235,0.045 -0.511,-0.167 -0.682,-0.738 -0.392,-1.307 -0.553,-2.173 -0.683,-2.696 -0.131,-0.522 0.411,-0.687 0.738,0.129 0.327,0.818 0.699,1.497 0.96,2.216 0.206,0.568 -0.029,1.031 -0.333,1.089 m -47.741,0 c -0.305,-0.058 -0.539,-0.521 -0.333,-1.089 0.261,-0.719 0.633,-1.398 0.961,-2.216 0.326,-0.816 0.868,-0.651 0.738,-0.129 -0.131,0.523 -0.291,1.389 -0.683,2.696 -0.172,0.571 -0.447,0.783 -0.683,0.738 m 50.511,0.572 c -0.206,-0.043 -0.444,-0.242 -0.591,-0.682 -0.392,-1.177 -0.45,-1.54 -0.646,-2.161 -0.196,-0.62 0.385,-0.815 0.646,-0.129 0.296,0.779 0.721,1.516 1.016,2.234 0.147,0.359 10e-4,0.665 -0.241,0.738 -0.06,0.019 -0.116,0.015 -0.184,0 m -53.465,0 c -0.241,-0.073 -0.387,-0.379 -0.24,-0.738 0.294,-0.718 0.719,-1.455 1.015,-2.234 0.262,-0.686 0.843,-0.491 0.646,0.129 -0.195,0.621 -0.253,0.984 -0.646,2.161 -0.196,0.587 -0.534,0.756 -0.775,0.682 m 56.013,0.038 c -0.197,-0.007 -0.426,-0.175 -0.61,-0.591 -0.489,-1.11 -0.667,-1.693 -0.83,-2.216 -0.164,-0.523 0.337,-0.992 0.664,-0.24 0.368,0.845 0.749,1.34 1.108,2.123 0.225,0.491 -0.005,0.935 -0.332,0.924 m -58.376,0 c -0.328,0.011 -0.557,-0.433 -0.332,-0.924 0.359,-0.783 0.74,-1.278 1.107,-2.123 0.327,-0.752 0.828,-0.283 0.665,0.24 -0.164,0.523 -0.341,1.106 -0.831,2.216 -0.184,0.416 -0.413,0.584 -0.609,0.591 m 34.911,0.101 c -0.194,-0.054 -0.37,-0.282 -0.37,-0.776 0,-0.881 0.06,-1.851 0.093,-2.308 0.033,-0.457 0.591,-0.69 0.591,-0.037 0,0.763 0.15,1.594 0.313,2.345 0.082,0.375 -0.169,0.705 -0.442,0.776 -0.069,0.018 -0.121,0.018 -0.185,0 m -11.631,0 c -0.274,-0.071 -0.525,-0.401 -0.443,-0.776 0.163,-0.751 0.314,-1.582 0.314,-2.345 0,-0.653 0.558,-0.42 0.591,0.037 0.032,0.457 0.092,1.427 0.092,2.308 0,0.659 -0.281,0.846 -0.554,0.776 m 9.12,1.034 c -0.197,-0.026 -0.363,-0.193 -0.388,-0.573 -0.065,-1.012 0.009,-1.785 0.074,-2.308 0.066,-0.522 0.71,-0.877 0.776,0.037 0.063,0.886 0.225,1.591 0.258,2.178 0.018,0.323 -0.292,0.624 -0.591,0.666 -0.042,0.005 -0.087,0.004 -0.129,0 m -6.554,0 c -0.299,-0.042 -0.608,-0.343 -0.591,-0.666 0.033,-0.587 0.196,-1.292 0.258,-2.178 0.066,-0.914 0.71,-0.559 0.776,-0.037 0.065,0.523 0.139,1.296 0.074,2.308 -0.024,0.38 -0.19,0.547 -0.388,0.573 -0.041,0.004 -0.087,0.005 -0.129,0 m 4.542,0.332 c -0.327,-0.004 -0.681,-0.287 -0.665,-0.924 0.033,-1.274 -0.02,-1.713 0.111,-2.399 0.131,-0.686 0.645,-0.901 0.776,-0.019 0.115,0.778 0.235,1.931 0.332,2.548 0.081,0.523 -0.227,0.797 -0.554,0.794 m -2.4,0 c -0.327,0.003 -0.636,-0.271 -0.554,-0.794 0.096,-0.617 0.217,-1.77 0.332,-2.548 0.13,-0.882 0.645,-0.667 0.776,0.019 0.13,0.686 0.077,1.125 0.11,2.399 0.017,0.637 -0.338,0.92 -0.664,0.924"/><path style="fill:#ffd83d;fill-opacity:1;fill-rule:nonzero;stroke:none" id="path55155" d="m 133.633,354.787 v -4.208 m 4.416,3.959 -0.16,-3.822 m 3.712,3.726 -0.161,-3.821 m 3.248,3.628 -0.193,-3.82 m 2.994,3.627 -0.227,-3.818 m 3.316,3.817 -0.262,-3.816 m 3.152,3.518 -0.475,-3.795 m 3.355,3.411 -0.475,-3.795 m 3.45,3.987 -0.474,-3.795 m 3.637,2.726 -0.657,-3.768 m 3.898,3.772 -0.611,-3.776 m 3.656,3.475 -0.75,-3.751 m 3.125,3.276 -0.701,-3.761 m 3.261,3.34 -1.021,-3.686 m 3.39,2.994 -1.152,-3.647 m -45.705,7.574 0.16,-3.822 m -3.712,3.726 0.16,-3.821 m -3.248,3.628 0.192,-3.82 m -2.993,3.627 0.227,-3.818 m -3.315,3.817 0.261,-3.816 m -3.152,3.518 0.475,-3.795 m -3.355,3.411 0.476,-3.795 m -3.451,3.987 0.474,-3.795 m -3.637,2.726 0.657,-3.768 m -3.897,3.772 0.61,-3.776 m -3.656,3.475 0.751,-3.751 m -3.126,3.276 0.701,-3.761 m -3.26,3.34 1.021,-3.686 m -3.391,2.994 1.152,-3.647"/><path style="fill:none;stroke:#000;stroke-width:.88599998;stroke-linecap:round;stroke-linejoin:round;stroke-miterlimit:4;stroke-dasharray:none;stroke-opacity:1" id="path55157" d="m 133.633,354.787 v -4.208 m 4.416,3.959 -0.16,-3.822 m 3.712,3.726 -0.161,-3.821 m 3.248,3.628 -0.193,-3.82 m 2.994,3.627 -0.227,-3.818 m 3.316,3.817 -0.262,-3.816 m 3.152,3.518 -0.475,-3.795 m 3.355,3.411 -0.475,-3.795 m 3.45,3.987 -0.474,-3.795 m 3.637,2.726 -0.657,-3.768 m 3.898,3.772 -0.611,-3.776 m 3.656,3.475 -0.75,-3.751 m 3.125,3.276 -0.701,-3.761 m 3.261,3.34 -1.021,-3.686 m 3.39,2.994 -1.152,-3.647 m -45.705,7.574 0.16,-3.822 m -3.712,3.726 0.16,-3.821 m -3.248,3.628 0.192,-3.82 m -2.993,3.627 0.227,-3.818 m -3.315,3.817 0.261,-3.816 m -3.152,3.518 0.475,-3.795 m -3.355,3.411 0.476,-3.795 m -3.451,3.987 0.474,-3.795 m -3.637,2.726 0.657,-3.768 m -3.897,3.772 0.61,-3.776 m -3.656,3.475 0.751,-3.751 m -3.126,3.276 0.701,-3.761 m -3.26,3.34 1.021,-3.686 m -3.391,2.994 1.152,-3.647"/></g></g></g></svg>